<svg width="1600" height="900" viewBox="0 0 1600 900" fill="none" xmlns="http://www.w3.org/2000/svg">
  <defs>
    <linearGradient id="bg3" x1="0" y1="0" x2="1600" y2="900" gradientUnits="userSpaceOnUse">
      <stop stop-color="#1D2F3F"/>
      <stop offset="1" stop-color="#406F91"/>
    </linearGradient>
  </defs>
  <rect width="1600" height="900" fill="url(#bg3)"/>
  <rect y="640" width="1600" height="260" fill="#111B24"/>
  <rect x="108" y="120" width="640" height="400" rx="18" fill="#15222D" stroke="#77A9CB" stroke-width="3"/>
  <polyline points="170,410 250,360 330,390 420,300 500,330 600,260 690,290" stroke="#8FD0F8" stroke-width="8" fill="none"/>
  <circle cx="170" cy="410" r="8" fill="#8FD0F8"/>
  <circle cx="250" cy="360" r="8" fill="#8FD0F8"/>
  <circle cx="330" cy="390" r="8" fill="#8FD0F8"/>
  <circle cx="420" cy="300" r="8" fill="#8FD0F8"/>
  <circle cx="500" cy="330" r="8" fill="#8FD0F8"/>
  <circle cx="600" cy="260" r="8" fill="#8FD0F8"/>
  <circle cx="690" cy="290" r="8" fill="#8FD0F8"/>
  <circle cx="930" cy="658" r="60" fill="#0F1720" stroke="#93C6E4" stroke-width="10"/>
  <circle cx="1210" cy="658" r="60" fill="#0F1720" stroke="#93C6E4" stroke-width="10"/>
  <path d="M850 632H1300L1240 520H960L890 560L850 632Z" fill="#6692B2"/>
  <text x="110" y="770" fill="#E0F0FA" font-size="54" font-family="Verdana">Gas Trek • Калибровка и тест-драйв</text>
</svg>
